<svg id="Layer_1" enable-background="new 0 0 64 64" height="512" viewBox="0 0 64 64" width="512" xmlns="http://www.w3.org/2000/svg"><g><path d="m55.267 22.76h-13.732v-14.337c0-2.07-.809-4.019-2.276-5.486-1.468-1.467-3.416-2.276-5.486-2.276h-25.049c-4.28 0-7.762 3.482-7.762 7.762v16.699c0 4.28 3.482 7.762 7.762 7.762h.587v4.762c0 1.474.877 2.781 2.235 3.331.437.177.892.262 1.343.262.939 0 1.855-.373 2.528-1.067l7.04-7.002v14.05c0 4.279 3.486 7.761 7.77 7.761h11.021l7.312 7.273c.688.708 1.608 1.085 2.552 1.085.451 0 .906-.086 1.344-.264 1.356-.549 2.232-1.854 2.232-3.325v-4.77h.579c4.285 0 7.771-3.481 7.771-7.761v-16.7c0-4.277-3.486-7.759-7.771-7.759zm-33.142 7.124c-.396 0-.777.157-1.058.437l-7.785 7.743c-.229.236-.479.185-.61.132-.135-.055-.361-.198-.361-.55v-6.262c0-.829-.671-1.5-1.5-1.5h-2.087c-2.626 0-4.762-2.136-4.762-4.762v-16.699c0-2.626 2.136-4.762 4.762-4.762h25.048c1.27 0 2.464.496 3.365 1.397.901.9 1.397 2.095 1.397 3.364v16.699c0 2.626-2.137 4.762-4.763 4.762h-11.646zm37.913 17.336c0 2.625-2.14 4.761-4.771 4.761h-2.079c-.828 0-1.5.672-1.5 1.5v6.27c0 .348-.226.491-.359.545-.133.053-.385.107-.634-.148l-7.77-7.729c-.281-.279-.661-.437-1.058-.437h-11.64c-2.63 0-4.77-2.136-4.77-4.761v-14.337h8.314c4.065 0 7.403-3.141 7.73-7.123h13.765c2.631 0 4.771 2.135 4.771 4.76v16.699z"/><g><path d="m33.461 36.667c-1.22 0-2.213.994-2.213 2.213s.994 2.213 2.213 2.213c1.221 0 2.215-.994 2.215-2.213s-.993-2.213-2.215-2.213z"/><path d="m42.747 36.667c-1.22 0-2.213.994-2.213 2.213s.994 2.213 2.213 2.213c1.221 0 2.215-.994 2.215-2.213s-.994-2.213-2.215-2.213z"/><path d="m52.033 36.667c-1.22 0-2.213.994-2.213 2.213s.994 2.213 2.213 2.213c1.221 0 2.215-.994 2.215-2.213s-.994-2.213-2.215-2.213z"/></g><g><path d="m20.753 21.827c-.866 0-1.568.722-1.568 1.589 0 .846.681 1.589 1.568 1.589s1.589-.743 1.589-1.589c0-.867-.722-1.589-1.589-1.589z"/><path d="m21.059 8.54c-3.192 0-4.659 1.892-4.659 3.169 0 .922.78 1.348 1.419 1.348 1.277 0 .757-1.821 3.169-1.821 1.182 0 2.128.52 2.128 1.608 0 1.277-1.324 2.01-2.104 2.672-.686.591-1.585 1.561-1.585 3.595 0 1.23.331 1.584 1.301 1.584 1.159 0 1.395-.52 1.395-.97 0-1.23.024-1.939 1.324-2.956.638-.497 2.648-2.105 2.648-4.328.001-2.222-2.009-3.901-5.036-3.901z"/></g></g></svg>